<mxfile host="app.diagrams.net" modified="2022-07-21T16:58:07.500Z" agent="5.0 (Macintosh; Intel Mac OS X 10_15_7) AppleWebKit/537.36 (KHTML, like Gecko) Chrome/102.0.0.0 Safari/537.36" etag="IJ5DmgVJkRK3BCCqrE9U" version="20.1.4" type="github">
  <diagram id="ixByIET1eY-oSuqdCUhO" name="Page-1">
    <mxGraphModel dx="946" dy="529" grid="1" gridSize="10" guides="1" tooltips="1" connect="1" arrows="1" fold="1" page="1" pageScale="1" pageWidth="850" pageHeight="1100" math="0" shadow="0">
      <root>
        <mxCell id="0" />
        <mxCell id="1" parent="0" />
        <mxCell id="Tl1Lc56jeloKBUfB4NoX-4" value="Central Mlflow" style="rounded=1;whiteSpace=wrap;html=1;" parent="1" vertex="1">
          <mxGeometry x="20" y="470" width="120" height="60" as="geometry" />
        </mxCell>
        <mxCell id="Tl1Lc56jeloKBUfB4NoX-12" style="edgeStyle=orthogonalEdgeStyle;rounded=0;orthogonalLoop=1;jettySize=auto;html=1;entryX=1;entryY=0.5;entryDx=0;entryDy=0;" parent="1" source="Tl1Lc56jeloKBUfB4NoX-5" target="Tl1Lc56jeloKBUfB4NoX-4" edge="1">
          <mxGeometry relative="1" as="geometry" />
        </mxCell>
        <mxCell id="Tl1Lc56jeloKBUfB4NoX-24" value="" style="edgeStyle=orthogonalEdgeStyle;rounded=0;orthogonalLoop=1;jettySize=auto;html=1;" parent="1" source="Tl1Lc56jeloKBUfB4NoX-5" target="Tl1Lc56jeloKBUfB4NoX-23" edge="1">
          <mxGeometry relative="1" as="geometry" />
        </mxCell>
        <mxCell id="Tl1Lc56jeloKBUfB4NoX-5" value="Staging Mlflow Controller" style="rounded=1;whiteSpace=wrap;html=1;" parent="1" vertex="1">
          <mxGeometry x="180" y="250" width="200" height="60" as="geometry" />
        </mxCell>
        <mxCell id="Tl1Lc56jeloKBUfB4NoX-22" style="edgeStyle=orthogonalEdgeStyle;rounded=0;orthogonalLoop=1;jettySize=auto;html=1;entryX=1;entryY=0.5;entryDx=0;entryDy=0;" parent="1" source="Tl1Lc56jeloKBUfB4NoX-6" target="Tl1Lc56jeloKBUfB4NoX-4" edge="1">
          <mxGeometry relative="1" as="geometry">
            <mxPoint x="150" y="500" as="targetPoint" />
            <Array as="points">
              <mxPoint x="450" y="280" />
              <mxPoint x="450" y="500" />
            </Array>
          </mxGeometry>
        </mxCell>
        <mxCell id="Tl1Lc56jeloKBUfB4NoX-26" value="" style="edgeStyle=orthogonalEdgeStyle;rounded=0;orthogonalLoop=1;jettySize=auto;html=1;" parent="1" source="Tl1Lc56jeloKBUfB4NoX-6" target="Tl1Lc56jeloKBUfB4NoX-25" edge="1">
          <mxGeometry relative="1" as="geometry" />
        </mxCell>
        <mxCell id="Tl1Lc56jeloKBUfB4NoX-6" value="Production Mlflow Controller" style="rounded=1;whiteSpace=wrap;html=1;" parent="1" vertex="1">
          <mxGeometry x="515" y="250" width="220" height="60" as="geometry" />
        </mxCell>
        <mxCell id="Tl1Lc56jeloKBUfB4NoX-10" value="Staging&amp;nbsp;" style="text;html=1;strokeColor=none;fillColor=none;align=center;verticalAlign=middle;whiteSpace=wrap;rounded=0;rotation=90;" parent="1" vertex="1">
          <mxGeometry x="70" y="320" width="150" height="30" as="geometry" />
        </mxCell>
        <mxCell id="Tl1Lc56jeloKBUfB4NoX-14" value="Production" style="text;html=1;strokeColor=none;fillColor=none;align=center;verticalAlign=middle;whiteSpace=wrap;rounded=0;rotation=90;" parent="1" vertex="1">
          <mxGeometry x="425" y="360" width="90" height="30" as="geometry" />
        </mxCell>
        <mxCell id="Tl1Lc56jeloKBUfB4NoX-23" value="Staging Seldon Deployment" style="whiteSpace=wrap;html=1;rounded=1;" parent="1" vertex="1">
          <mxGeometry x="160" y="140" width="240" height="60" as="geometry" />
        </mxCell>
        <mxCell id="Tl1Lc56jeloKBUfB4NoX-25" value="Production Seldon Deployment" style="whiteSpace=wrap;html=1;rounded=1;" parent="1" vertex="1">
          <mxGeometry x="510" y="140" width="230" height="60" as="geometry" />
        </mxCell>
      </root>
    </mxGraphModel>
  </diagram>
</mxfile>
